<?xml version="1.0" encoding="utf-8"?>
<!-- Generator: Adobe Illustrator 23.0.6, SVG Export Plug-In . SVG Version: 6.00 Build 0)  -->
<svg version="1.1" id="Layer_1" xmlns="http://www.w3.org/2000/svg" xmlns:xlink="http://www.w3.org/1999/xlink" x="0px" y="0px"
	 viewBox="0 0 300 300" style="enable-background:new 0 0 300 300;" xml:space="preserve">
<style type="text/css">
	.st0{fill:#FF5C61;}
	.st1{fill:none;stroke:#FF0015;stroke-miterlimit:10;}
</style>
<g>
	<path d="M45.38,206.67c-2.47,0-4.28-1.56-4.28-3.8c0-2.24,1.81-3.78,4.28-3.78c2.45,0,4.26,1.54,4.26,3.78
		C49.64,205.11,47.83,206.67,45.38,206.67z M45.38,205.16c1.42,0,2.47-0.91,2.47-2.29c0-1.37-1.05-2.27-2.47-2.27
		c-1.44,0-2.49,0.91-2.49,2.27C42.9,204.26,43.94,205.16,45.38,205.16z M51.72,212.53H54v1.46H42.95v-1.46h2.24v-3.07h-2.1v-1.46
		H53.8v1.46h-2.08V212.53z M46.98,212.53h2.93v-3.07h-2.93V212.53z M55.7,201.93v1.51h-2.27v3.75H51.6v-8.99h1.83v3.73H55.7z"/>
	<path d="M71.77,210.71v1.51H57.24v-1.51H71.77z M70.38,203.64c0,2.73-2.56,4.53-5.9,4.53c-3.36,0-5.9-1.79-5.9-4.53
		c0-2.72,2.54-4.53,5.9-4.53C67.83,199.11,70.38,200.92,70.38,203.64z M60.37,203.64c0,1.85,1.74,3.02,4.12,3.02
		c2.36,0,4.12-1.17,4.12-3.02c0-1.85-1.76-3.02-4.12-3.02C62.11,200.62,60.37,201.79,60.37,203.64z"/>
	<path d="M88.1,210.85v1.51H73.58v-1.51h6.32v-2.74h-4.56v-5.17h9.24v-2.15H75.3v-1.47h11.08v5.08h-9.25v2.24h9.61v1.47h-5.01v2.74
		H88.1z"/>
	<path d="M99.7,203.1c0,2.49,1.08,5.03,3.29,6.2l-1.01,1.37c-1.51-0.8-2.54-2.27-3.13-4c-0.57,1.86-1.58,3.48-3.11,4.37l-1.05-1.37
		c2.18-1.3,3.27-4.03,3.27-6.57v-0.55h-2.82v-1.49h2.82v-2.31h1.74v2.31h2.81v1.49H99.7V203.1z M108.65,198.2v16.04h-1.74v-8.21
		h-1.76v7.46h-1.72V198.5h1.72v6.02h1.76v-6.32H108.65z"/>
	<path d="M121.71,207.35c-1.49,0.27-3.02,0.43-4.53,0.51v5.88h-1.83v-5.79c-1.42,0.05-2.77,0.07-3.98,0.07l-0.23-1.51
		c3.02,0,7-0.04,10.46-0.52L121.71,207.35z M112.3,202.14c0-1.9,1.69-3.2,4.07-3.2c2.36,0,4.05,1.3,4.05,3.2
		c0,1.94-1.69,3.23-4.05,3.23C113.99,205.38,112.3,204.08,112.3,202.14z M114.02,202.14c0,1.12,0.96,1.81,2.34,1.81
		c1.37,0,2.33-0.69,2.33-1.81c0-1.1-0.96-1.81-2.33-1.81C114.98,200.33,114.02,201.04,114.02,202.14z M124.57,198.2v16.04h-1.85
		v-3.76h-3.43v-1.4h3.43V198.2H124.57z"/>
	<path d="M129.93,208.72c2.17-0.02,4.48-0.2,6.91-0.69l0.21,1.51c-2.72,0.53-5.2,0.71-7.62,0.71h-1.33v-10.48h1.83V208.72z
		 M142.4,205.96h-2.43v8.28h-1.83V198.2h1.83v6.25h2.43V205.96z"/>
	<path d="M152.08,198.89c0,4.14-2.81,6.75-7.53,7.8l-0.67-1.49c3.84-0.8,5.91-2.63,6.16-4.81h-5.45v-1.49H152.08z M147.88,212.62
		h9.06v1.47h-10.85v-4.32h8.51v-1.35h-8.54v-1.47h10.35v4.21h-8.53V212.62z M158.68,201.61v1.51h-2.27v3.18h-1.83v-8.1h1.83v3.41
		H158.68z"/>
	<path d="M171.45,208.7c0.51-0.05,1.03-0.11,1.49-0.18l0.13,1.33c-2.5,0.5-5.81,0.57-7.83,0.57l-0.21-1.51c0.44,0,0.94,0,1.47,0
		v-7.3h-1.15v-1.47h7.3v1.47h-1.19V208.7z M168.16,208.88c0.53-0.02,1.07-0.04,1.62-0.07v-7.19h-1.62V208.88z M174.09,198.56h1.72
		v14.88h-1.72v-7.64h-1.9v-1.62h1.9V198.56z M179,198.2v16.04h-1.76V198.2H179z"/>
	<path d="M190.32,205.02c0,3.48-1.74,5.67-4.14,5.67c-2.38,0-4.12-2.18-4.12-5.67c0-3.45,1.74-5.65,4.12-5.65
		C188.58,199.37,190.32,201.58,190.32,205.02z M183.82,205.02c0,2.52,0.98,4.03,2.36,4.03c1.4,0,2.38-1.51,2.38-4.03
		c0-2.49-0.98-4-2.38-4C184.8,201.03,183.82,202.54,183.82,205.02z M194.73,198.18v16.09h-1.85v-16.09H194.73z"/>
	<path d="M203.78,202.84c0,2.66,1.65,5.43,4.16,6.5l-1.01,1.44c-1.86-0.82-3.3-2.56-4.05-4.64c-0.71,2.24-2.15,4.14-4.03,5.04
		l-1.05-1.46c2.49-1.15,4.14-4.14,4.14-6.89v-1.53h-3.57v-1.51h8.99v1.51h-3.57V202.84z M211.06,198.2v16.04h-1.85V198.2H211.06z"/>
	<path d="M223.01,202.66c0,2.2-1.79,3.73-4.25,3.73s-4.26-1.53-4.26-3.73s1.81-3.73,4.26-3.73S223.01,200.46,223.01,202.66z
		 M216.3,202.66c0,1.35,1.01,2.22,2.47,2.22c1.44,0,2.47-0.87,2.47-2.22c0-1.33-1.03-2.22-2.47-2.22
		C217.31,200.44,216.3,201.33,216.3,202.66z M218.75,207.56v1.78h6.86v-1.78h1.81v6.48h-10.48v-6.48H218.75z M218.75,212.57h6.86
		v-1.81h-6.86V212.57z M227.42,198.2v8.61h-1.83v-8.61H227.42z"/>
	<path d="M233.29,208.63c2.27-0.02,4.67-0.21,7.19-0.73l0.2,1.53c-2.75,0.57-5.35,0.76-7.83,0.76h-1.37v-10.43h1.81V208.63z
		 M243.79,198.2v16.04h-1.83V198.2H243.79z"/>
	<path d="M249.34,208.79c2.59-0.02,4.55-0.12,6.78-0.52l0.2,1.51c-2.43,0.44-4.6,0.53-7.5,0.53h-1.31v-10.6h7.46v1.49h-5.63V208.79z
		 M261.79,205.87h-2.5v8.38h-1.83v-16.07h1.83v6.18h2.5V205.87z"/>
	<path d="M263.58,211.68c0-0.83,0.6-1.46,1.37-1.46s1.37,0.62,1.37,1.46c0,0.83-0.6,1.42-1.37,1.42S263.58,212.52,263.58,211.68z"/>
</g>
<g>
	<path class="st0" d="M151.56,103.95c0-2.26,1.58-3.94,3.65-3.94c2.11,0,3.74,1.68,3.74,3.94s-1.63,3.84-3.74,3.84
		C153.14,107.79,151.56,106.2,151.56,103.95z M152.62,76.68l-0.14-5.66h5.57l-0.19,5.66l-0.77,19.2h-3.7L152.62,76.68z"/>
</g>
<circle class="st1" cx="154.75" cy="91.25" r="34.25"/>
</svg>
