<?xml version="1.0" encoding="utf-8"?>
<!-- Generator: Adobe Illustrator 23.0.6, SVG Export Plug-In . SVG Version: 6.00 Build 0)  -->
<svg version="1.1" id="Layer_1" xmlns="http://www.w3.org/2000/svg" xmlns:xlink="http://www.w3.org/1999/xlink" x="0px" y="0px"
	 viewBox="0 0 300 300" style="enable-background:new 0 0 300 300;" xml:space="preserve">
<style type="text/css">
	.st0{fill:#213065;}
	.st1{fill:#D22B27;}
</style>
<g id="XMLID_3126_">
	<g id="XMLID_793_">
		<polygon id="XMLID_794_" class="st0" points="299.29,150.08 268.3,150.08 268.3,187.9 299.29,156.91 		"/>
	</g>
	<g id="XMLID_708_">
		<g id="XMLID_747_">
			
				<rect id="XMLID_792_" x="229.78" y="266.81" transform="matrix(0.7071 -0.7071 0.7071 0.7071 -119.0573 249.8595)" class="st0" width="24.61" height="3.68"/>
		</g>
		<g id="XMLID_710_">
			
				<rect id="XMLID_711_" x="232.77" y="260.93" transform="matrix(0.7071 -0.7071 0.7071 0.7071 -116.2105 244.9561)" class="st0" width="9.63" height="3.65"/>
		</g>
	</g>
	<g id="XMLID_706_">
		<path id="XMLID_707_" class="st1" d="M267.9,243.31c-0.17,1.47-0.4,2.87-0.69,4.13c-0.74,3.11-1.83,5.65-3.3,7.57
			c-1.47,1.92-3.32,3.3-5.55,4.13c-2.14,0.78-4.65,1.19-7.5,1.23l-17.49,17.49l-0.45,4.89c3.68,0.85,7.19,1.47,10.58,1.83
			c3.39,0.36,6.83,0.55,10.32,0.55c7.69,0,14.38-1.21,20.07-3.63c5.67-2.42,10.42-5.81,14.17-10.18c3.75-4.37,6.57-9.61,8.42-15.73
			c1.87-6.12,2.8-12.88,2.8-20.36v-23.33L267.9,243.31z"/>
	</g>
	<g id="XMLID_190_">
		<g id="XMLID_704_">
			
				<rect id="XMLID_705_" x="261.49" y="218.99" transform="matrix(0.7071 -0.7071 0.7071 0.7071 -73.0685 265.2346)" class="st0" width="44.28" height="3.65"/>
		</g>
		<g id="XMLID_702_">
			
				<rect id="XMLID_703_" x="261.49" y="208.62" transform="matrix(0.7071 -0.7071 0.7071 0.7071 -65.7357 262.1976)" class="st0" width="44.28" height="3.65"/>
		</g>
		<g id="XMLID_700_">
			
				<rect id="XMLID_701_" x="261.49" y="198.25" transform="matrix(0.7071 -0.7071 0.7071 0.7071 -58.4027 259.1613)" class="st0" width="44.28" height="3.65"/>
		</g>
		<g id="XMLID_693_">
			
				<rect id="XMLID_696_" x="261.5" y="187.88" transform="matrix(0.7071 -0.7071 0.7071 0.7071 -51.0701 256.1242)" class="st0" width="44.28" height="3.65"/>
		</g>
		<g id="XMLID_390_">
			
				<rect id="XMLID_692_" x="261.48" y="177.5" transform="matrix(0.7071 -0.7071 0.7071 0.7071 -43.7302 253.0709)" class="st0" width="44.28" height="3.65"/>
		</g>
	</g>
</g>
<g id="XMLID_988_">
	<g id="XMLID_690_">
		<path id="XMLID_724_" class="st1" d="M89.22,75.83c2.87-1.99,5.22-4.2,7.05-6.64c1-1.33,1.85-2.73,2.54-4.15L86.13,77.7
			C87.23,77.09,88.27,76.47,89.22,75.83z"/>
	</g>
	<g id="XMLID_673_">
		<path id="XMLID_674_" class="st1" d="M82.01,81.86L67.65,96.21c0.81,0.45,1.54,0.93,2.18,1.47c1.57,1.35,2.66,2.99,3.3,4.96
			c0.64,1.95,0.97,4.15,0.97,6.6c0,2.14-0.28,4.25-0.83,6.34c-0.55,2.09-1.57,3.94-3.01,5.6c-1.47,1.64-3.49,2.99-6.1,4.03
			c-2.61,1.02-5.96,1.52-10.06,1.52H37.09L13.71,150.1h40.93c8,0,15.12-1.02,21.36-3.06c6.24-2.04,11.46-4.89,15.73-8.52
			c4.25-3.63,7.47-7.9,9.68-12.79c2.21-4.89,3.3-10.18,3.3-15.85c0-7.52-2.11-13.67-6.34-18.46C94.68,87.2,89.22,84.02,82.01,81.86z
			"/>
	</g>
	<g id="XMLID_671_">
		<path id="XMLID_672_" class="st0" d="M32.29,72.75V39.76h18.15c3.49,0,6.5,0.28,9.04,0.83c2.47,0.55,4.51,1.42,6.15,2.66
			l19.74-19.74c-3.25-1.76-7.05-3.23-11.34-4.37c-6.48-1.71-14.33-2.56-23.56-2.56H1.3v90.98l34.79-34.79h-3.8V72.75z"/>
	</g>
	<g id="XMLID_220_">
		<g id="XMLID_669_">
			
				<rect id="XMLID_670_" x="56.48" y="74.55" transform="matrix(0.7071 -0.7071 0.7071 0.7071 -29.8167 80.7931)" class="st0" width="52.27" height="3.68"/>
		</g>
		<g id="XMLID_667_">
			
				<rect id="XMLID_668_" x="3.93" y="136.37" transform="matrix(0.7071 -0.7071 0.7071 0.7071 -91.6352 55.167)" class="st0" width="33.69" height="3.65"/>
		</g>
		<g id="XMLID_665_">
			
				<rect id="XMLID_666_" x="45.67" y="68.39" transform="matrix(0.7071 -0.7071 0.7071 0.7071 -26.6852 76.008)" class="st0" width="65.47" height="3.65"/>
		</g>
		<g id="XMLID_663_">
			
				<rect id="XMLID_664_" x="-5.18" y="129.84" transform="matrix(0.7071 -0.7071 0.7071 0.7071 -88.1504 50.5461)" class="st0" width="44.23" height="3.68"/>
		</g>
		<g id="XMLID_526_">
			
				<rect id="XMLID_662_" x="33.62" y="64.3" transform="matrix(0.7071 -0.7071 0.7071 0.7071 -25.6398 70.3706)" class="st0" width="77" height="3.68"/>
		</g>
		<g id="XMLID_524_">
			
				<rect id="XMLID_525_" x="-5.17" y="119.47" transform="matrix(0.7071 -0.7071 0.7071 0.7071 -80.8174 47.5098)" class="st0" width="44.23" height="3.68"/>
		</g>
		<g id="XMLID_522_">
			
				<rect id="XMLID_523_" x="65.28" y="42.9" transform="matrix(0.7071 -0.7071 0.7071 0.7071 -7.2798 71.9088)" class="st0" width="35.76" height="3.68"/>
		</g>
		<g id="XMLID_520_">
			
				<rect id="XMLID_521_" x="30.1" y="80.84" transform="matrix(0.7071 -0.7071 0.7071 0.7071 -45.2148 56.1954)" class="st0" width="30.25" height="3.68"/>
		</g>
		<g id="XMLID_518_">
			
				<rect id="XMLID_519_" x="-5.19" y="109.11" transform="matrix(0.7071 -0.7071 0.7071 0.7071 -73.4864 44.4642)" class="st0" width="44.23" height="3.65"/>
		</g>
		<g id="XMLID_516_">
			
				<rect id="XMLID_517_" x="64.7" y="35.61" transform="matrix(0.7071 -0.7071 0.7071 0.7071 -3.026 67.5689)" class="st0" width="30.71" height="3.65"/>
		</g>
		<g id="XMLID_238_">
			
				<rect id="XMLID_515_" x="-7.78" y="92.41" transform="matrix(0.7071 -0.7071 0.7071 0.7071 -59.8317 44.0607)" class="st0" width="62.1" height="3.68"/>
		</g>
	</g>
</g>
<g id="XMLID_3160_">
	<g id="XMLID_273_">
		<path id="XMLID_275_" class="st0" d="M163.04,124.17L144.15,85.3c-0.97-1.95-2.25-3.56-3.84-4.82c-1.59-1.26-3.73-1.87-6.41-1.87
			h-27.34l38.06,65.11l18.77-18.77C163.28,124.69,163.18,124.45,163.04,124.17z"/>
	</g>
	<g id="XMLID_229_">
		<g id="XMLID_268_">
			
				<rect id="XMLID_270_" x="144.32" y="151.21" transform="matrix(0.7071 -0.7071 0.7071 0.7071 -55.4029 172.3203)" class="st0" width="71.97" height="3.65"/>
		</g>
		<g id="XMLID_257_">
			
				<rect id="XMLID_261_" x="141.23" y="133.41" transform="matrix(0.7071 -0.7071 0.7071 0.7071 -40.646 172.3745)" class="st0" width="93.04" height="3.68"/>
		</g>
		<g id="XMLID_254_">
			
				<rect id="XMLID_255_" x="136.9" y="117.02" transform="matrix(0.7071 -0.7071 0.7071 0.7071 -27.2863 171.8431)" class="st0" width="113.78" height="3.68"/>
		</g>
		<g id="XMLID_250_">
			
				<rect id="XMLID_252_" x="167.99" y="99.85" transform="matrix(0.7071 -0.7071 0.7071 0.7071 -13.153 171.6212)" class="st0" width="65.21" height="3.68"/>
		</g>
		<g id="XMLID_243_">
			
				<rect id="XMLID_245_" x="145.85" y="141.53" transform="matrix(0.7071 -0.7071 0.7071 0.7071 -54.835 154.3571)" class="st0" width="26.13" height="3.68"/>
		</g>
		<g id="XMLID_236_">
			
				<rect id="XMLID_239_" x="181.47" y="89.95" transform="matrix(0.7071 -0.7071 0.7071 0.7071 -6.29 168.3696)" class="st0" width="37.25" height="3.65"/>
		</g>
		<g id="XMLID_232_">
			
				<rect id="XMLID_235_" x="141.81" y="134.73" transform="matrix(0.7071 -0.7071 0.7071 0.7071 -51.0714 149.837)" class="st0" width="27.05" height="3.68"/>
		</g>
	</g>
	<g id="XMLID_227_">
		<path id="XMLID_228_" class="st0" d="M206.87,78.61c-1.28,0-2.47,0.19-3.54,0.59c-1.07,0.4-2.02,0.93-2.85,1.57
			c-0.83,0.64-1.57,1.35-2.21,2.16c-0.64,0.78-1.14,1.59-1.52,2.37l-5.81,12.1l18.79-18.79H206.87z"/>
	</g>
	<g id="XMLID_5_">
		<polygon id="XMLID_226_" class="st1" points="154.97,188.38 154.97,212.18 185.96,212.18 185.96,161.4 191.56,151.79 		"/>
	</g>
</g>
</svg>
