<?xml version="1.0" encoding="utf-8"?>
<!-- Generator: Adobe Illustrator 23.0.6, SVG Export Plug-In . SVG Version: 6.00 Build 0)  -->
<svg version="1.1" id="Layer_1" xmlns="http://www.w3.org/2000/svg" xmlns:xlink="http://www.w3.org/1999/xlink" x="0px" y="0px"
	 viewBox="0 0 300 150" style="enable-background:new 0 0 300 150;" xml:space="preserve">
<style type="text/css">
	.st0{fill:#FFFFFF;}
</style>
<g>
	<path class="st0" d="M17.21,56.73c6.75,0,12.62,1.68,12.62,7.91c0,4.37-2.91,6.51-5.95,6.6c4.45,0.22,8.27,3.18,8.25,8.23
		c0.02,6.31-5.94,9.09-14.23,9.09H1.36l0.01-0.45h0.58c1.58,0,2.87-1.26,2.91-2.83V60c-0.05-1.57-1.33-2.82-2.9-2.82H1.37
		l-0.01-0.45L17.21,56.73z M14.77,86.22c3.65,0.02,6.69-1.93,6.67-7.45c0.02-4.35-1.89-7.03-5.71-7.02l-0.01-0.43
		c2.93,0.01,4.33-2.17,4.34-5.95c0-4.86-2.32-6.36-5.28-6.35h-0.58v27.21L14.77,86.22z"/>
	<path class="st0" d="M63.62,85.6c1.01,1.77,2.5,2.51,3.8,2.51h0.38v0.46H50.57v-0.45h0.4c1.17,0,2.49-1.04,1.76-2.85l-1.77-4.24
		h-9.71l-1.83,4.24c-0.8,1.82,0.57,2.85,1.75,2.85h0.4v0.45H31.42V88.1h0.41c1.27,0,2.79-0.73,3.78-2.46l10.61-23.23
		c0.53-1.14,2.41-5.25,2.59-6.78h0.41L63.62,85.6z M50.01,78.74l-3.8-9.09l-3.96,9.09H50.01z"/>
	<path class="st0" d="M95.66,78.03l-1.74,10.53H67.34l0.01-0.45h0.58c1.59,0,2.88-1.28,2.91-2.86V60.03
		c-0.03-1.58-1.32-2.85-2.91-2.85h-0.58l-0.01-0.45h20.12c1.96-0.02,4.58-0.47,5.42-0.83v9.38l-0.46-0.01v-0.36
		c0.01-3.58-2.1-5.76-5.68-5.89h-6.59v12.69h4.96c2.89-0.05,4.94-2.11,4.93-4.97v-0.22l0.44-0.01v12.65l-0.44-0.01v-0.21
		c0.01-2.84-2.01-4.89-4.87-4.97h-5.02v12.26h5.61c4.36,0,8.02-3.04,9.44-8.23H95.66z"/>
	<path class="st0" d="M125.64,61.28v0.45h-0.58c-1.73,0-3.28,1.1-4.18,2.31l-8.72,13.24v8.36c0.03,1.37,1.2,2.46,2.64,2.46h0.52
		l0.01,0.45h-9.3l0.01-0.45h0.52c1.45,0,2.62-1.1,2.65-2.46v-8.42l-8.42-13.2c-0.93-1.39-2.43-2.29-4.16-2.29h-0.56v-0.45h10.54
		v0.45h-0.52c-1.22,0-1.93,1.12-1.55,2.17l6.61,11.78l7.06-11.73c0.47-1.13-0.31-2.22-1.55-2.22h-0.52v-0.45L125.64,61.28z"/>
	<path class="st0" d="M155.65,61.28v0.45h-0.67c-1.18,0-2.13,0.82-2.19,1.92v15.3c0,6.35-4.32,10.24-11.33,10.24
		c-7.02,0-11.37-3.87-11.37-10.18V63.7c-0.02-1.13-0.99-1.97-2.19-1.97h-0.67v-0.45h8.63v0.45h-0.67c-1.19,0-2.16,0.84-2.19,1.97
		v14.74c0,5.9,3.21,9.52,8.43,9.52c5.74,0,9.26-3.42,9.27-9.01V63.67c-0.04-1.11-1-1.94-2.19-1.94h-0.67v-0.45L155.65,61.28z"/>
	<path class="st0" d="M169.7,61.28l-0.01,0.45h-0.58c-1.62,0-2.93,1.1-2.96,2.47v24.36c0,4.41-3.85,8.09-8.33,8.09V96.2
		c2.9-0.91,5.42-4.27,5.42-7.64V64.03c-0.14-1.28-1.4-2.28-2.95-2.28h-0.58l-0.01-0.47H169.7z"/>
	<path class="st0" d="M192.25,88.56h-18.47l0.01-0.46h0.62c1.47,0,2.57-1.07,2.63-2.41V64.11c0-1.36-1.15-2.38-2.63-2.38h-0.63
		l-0.01-0.45h13.28c1.83-0.01,4.29-0.41,5.08-0.71v5.15l-0.49-0.01V65c0-1.27-0.9-2.31-2.28-2.34h-9.43v11.57h7.77
		c1.26-0.03,1.84-0.88,1.84-1.93v-0.58l0.5,0v6.39l-0.5,0v-0.58c0-1.02-0.55-1.86-1.74-1.93h-7.87v11.57h7.11
		c4.37-0.06,5.92-2.19,7.22-5.13h0.49L192.25,88.56z"/>
	<path class="st0" d="M229.06,74.92c0,8.45-6.86,14.28-15.34,14.28c-8.48,0-15.34-5.83-15.34-14.28s6.86-14.28,15.34-14.28
		C222.2,60.64,229.06,66.47,229.06,74.92z M225.7,74.92c0-7.69-5.29-12.92-11.97-12.92c-6.69,0-11.98,5.23-11.98,12.92
		c0,7.69,5.29,12.92,11.98,12.92C220.41,87.83,225.7,82.61,225.7,74.92z"/>
	<path class="st0" d="M264.9,61.28l-0.01,0.45h-0.76c-1.35,0-2.45,1.01-2.53,2.28V83.4c0,2.93,0.43,5.8,0.43,5.8h-0.43l-23.65-22.44
		v18.97c0.03,1.32,1.15,2.38,2.53,2.38h0.76l0.01,0.45h-8.6l0.01-0.45h0.76c1.38,0,2.5-1.06,2.53-2.38V66.28
		c0-3.1-0.44-5.68-0.44-5.68l0.49,0.02l23.6,22.24V64c-0.08-1.27-1.18-2.27-2.53-2.27h-0.76l-0.01-0.45L264.9,61.28z"/>
	<path class="st0" d="M296.4,83.34c-2.12,2.68-6.55,5.86-12.95,5.86c-8.99-0.05-14.92-5.47-14.92-14.28
		c0-8.85,5.94-14.28,14.9-14.28c4.19,0,7.55,0.88,10.62,2.75l1,6.42h-0.4c-1.32-5.31-4.9-7.81-11.26-7.81
		c-6.95,0-11.57,4.91-11.57,12.92c0,7.97,4.65,12.91,11.63,12.91c3.79,0,7.14-1.17,9.99-3.94l0.08-6.04
		c0.01-1.14-0.79-1.79-2.12-1.79h-0.65v-0.46h8.34v0.46h-0.62c-1.33,0-2.08,0.64-2.07,1.8L296.4,83.34z"/>
</g>
</svg>
